<?xml version="1.0" encoding="UTF-8"?>
<svg fill="#000000" width="64px" height="64px"  id="a" data-name="Layer_1" xmlns="http://www.w3.org/2000/svg" viewBox="0 0 1080 1080">
  <path d="M376.67,577.86c0-20.39,2.42-37.81,7.27-52.27,4.85-14.45,10.86-27.11,18.05-37.98,7.18-10.86,14.33-20.89,21.43-30.08,7.1-9.19,13.08-18.59,17.92-28.2,4.85-9.61,7.27-20.51,7.27-32.72v-.25c0-14.54-3.72-25.82-11.16-33.84-7.44-8.02-17.84-12.03-31.21-12.03s-24.03,4.98-31.46,14.92c-7.44,9.95-11.24,24.03-11.41,42.24v.25h-51.89v-.25c1.17-33.26,9.99-59,26.45-77.21,16.46-18.21,39.06-27.33,67.81-27.33s53.4,8.15,69.94,24.44c16.55,16.3,24.82,39.32,24.82,69.07v.25c0,13.21-1.75,24.78-5.26,34.72-3.51,9.95-8.02,18.93-13.54,26.95-5.51,8.02-11.37,15.88-17.55,23.57-6.19,7.69-12.03,15.96-17.55,24.82-5.52,8.86-10.03,18.97-13.54,30.33-3.51,11.37-5.26,24.91-5.26,40.61h-51.14ZM375.42,671.36v-53.65h53.65v53.65h-53.65Z"/>
  <path d="M531.42,462.29v-53.65h53.65v53.65h-53.65ZM550.42,560.4v-44.76h109.78v44.76h-109.78ZM531.42,671.36v-53.65h53.65v53.65h-53.65Z"/>
  <path d="M656.51,780.92l-35.1-31.59c25.23-28.25,44.12-59.75,56.66-94.51,12.54-34.76,18.8-73.03,18.8-114.82s-6.27-80.05-18.8-114.82c-12.54-34.76-31.42-66.18-56.66-94.26l35.1-31.84c29.75,32.26,52.02,68.4,66.81,108.43,14.79,40.03,22.19,84.19,22.19,132.49s-7.4,92.47-22.19,132.49-37.06,76.17-66.81,108.43Z"/>
</svg>